{
  "accessors": [
    {
      "bufferView": 2,
      "componentType": 5126,
      "count": 812,
      "max": [
        3.180544376373291,
        10.181819915771484,
        3.180544376373291
      ],
      "min": [
        -3.180544376373291,
        -10.55309772491455,
        -3.180544376373291
      ],
      "type": "VEC3"
    },
    {
      "bufferView": 2,
      "byteOffset": 9744,
      "componentType": 5126,
      "count": 812,
      "max": [
        1.0,
        0.3122735023498535,
        1.0
      ],
      "min": [
        -1.0,
        -1.0,
        -1.0
      ],
      "type": "VEC3"
    },
    {
      "bufferView": 1,
      "componentType": 5126,
      "count": 812,
      "max": [
        1.0,
        1.0
      ],
      "min": [
        0.0,
        0.0
      ],
      "type": "VEC2"
    },
    {
      "bufferView": 0,
      "componentType": 5125,
      "count": 2784,
      "type": "SCALAR"
    },
    {
      "bufferView": 2,
      "byteOffset": 19488,
      "componentType": 5126,
      "count": 1799,
      "max": [
        3.346336841583252,
        13.999998092651367,
        3.346336841583252
      ],
      "min": [
        -3.346336841583252,
        -11.886463165283203,
        -3.346336841583252
      ],
      "type": "VEC3"
    },
    {
      "bufferView": 2,
      "byteOffset": 41076,
      "componentType": 5126,
      "count": 1799,
      "max": [
        1.0,
        1.0,
        1.0
      ],
      "min": [
        -1.0,
        -1.0,
        -1.0
      ],
      "type": "VEC3"
    },
    {
      "bufferView": 1,
      "byteOffset": 6496,
      "componentType": 5126,
      "count": 1799,
      "max": [
        1.0,
        1.0418586730957031
      ],
      "min": [
        0.0,
        0.0
      ],
      "type": "VEC2"
    },
    {
      "bufferView": 0,
      "byteOffset": 11136,
      "componentType": 5125,
      "count": 6357,
      "type": "SCALAR"
    },
    {
      "bufferView": 2,
      "byteOffset": 62664,
      "componentType": 5126,
      "count": 132,
      "max": [
        1.6499998569488525,
        7.793019771575928,
        1.6500002145767212
      ],
      "min": [
        -1.649999976158142,
        -3.466414451599121,
        -1.6499998569488525
      ],
      "type": "VEC3"
    },
    {
      "bufferView": 2,
      "byteOffset": 64248,
      "componentType": 5126,
      "count": 132,
      "max": [
        1.0,
        0.14154954254627228,
        1.0
      ],
      "min": [
        -1.0,
        0.0,
        -1.0
      ],
      "type": "VEC3"
    },
    {
      "bufferView": 1,
      "byteOffset": 20888,
      "componentType": 5126,
      "count": 132,
      "max": [
        1.0,
        0.886363685131073
      ],
      "min": [
        0.0,
        0.6795900464057922
      ],
      "type": "VEC2"
    },
    {
      "bufferView": 0,
      "byteOffset": 36564,
      "componentType": 5125,
      "count": 384,
      "type": "SCALAR"
    }
  ],
  "asset": {
    "extras": {
      "author": "Diccbudd (https://sketchfab.com/Diccbudd)",
      "license": "CC-BY-4.0 (http://creativecommons.org/licenses/by/4.0/)",
      "source": "https://sketchfab.com/3d-models/v2-rocket-c12726a34e534e53af7134e22b1f9cca",
      "title": "V2 Rocket"
    },
    "generator": "Sketchfab-12.68.0",
    "version": "2.0"
  },
  "bufferViews": [
    {
      "buffer": 0,
      "byteLength": 38100,
      "name": "floatBufferViews",
      "target": 34963
    },
    {
      "buffer": 0,
      "byteLength": 21944,
      "byteOffset": 38100,
      "byteStride": 8,
      "name": "floatBufferViews",
      "target": 34962
    },
    {
      "buffer": 0,
      "byteLength": 65832,
      "byteOffset": 60044,
      "byteStride": 12,
      "name": "floatBufferViews",
      "target": 34962
    }
  ],
  "buffers": [
    {
      "byteLength": 125876,
      "uri": "scene.bin"
    }
  ],
  "materials": [
    {
      "doubleSided": true,
      "name": "BodyWhite",
      "pbrMetallicRoughness": {
        "baseColorFactor": [
          0.8,
          0.8,
          0.8,
          1.0
        ],
        "metallicFactor": 0.8,
        "roughnessFactor": 0.46988338227872734
      }
    },
    {
      "doubleSided": true,
      "name": "BodyBlack",
      "pbrMetallicRoughness": {
        "baseColorFactor": [
          0.0,
          0.0,
          0.0,
          1.0
        ],
        "metallicFactor": 0.8,
        "roughnessFactor": 0.46988338227872734
      }
    },
    {
      "doubleSided": true,
      "name": "Material.001",
      "pbrMetallicRoughness": {
        "baseColorFactor": [
          0.256519,
          0.0242431,
          0.019284,
          1.0
        ],
        "metallicFactor": 0.0,
        "roughnessFactor": 0.413636
      }
    }
  ],
  "meshes": [
    {
      "name": "Object_0",
      "primitives": [
        {
          "attributes": {
            "NORMAL": 1,
            "POSITION": 0,
            "TEXCOORD_0": 2
          },
          "indices": 3,
          "material": 0,
          "mode": 4
        }
      ]
    },
    {
      "name": "Object_1",
      "primitives": [
        {
          "attributes": {
            "NORMAL": 5,
            "POSITION": 4,
            "TEXCOORD_0": 6
          },
          "indices": 7,
          "material": 1,
          "mode": 4
        }
      ]
    },
    {
      "name": "Object_2",
      "primitives": [
        {
          "attributes": {
            "NORMAL": 9,
            "POSITION": 8,
            "TEXCOORD_0": 10
          },
          "indices": 11,
          "material": 2,
          "mode": 4
        }
      ]
    }
  ],
  "nodes": [
    {
      "children": [
        1
      ],
      "matrix": [
        1.0,
        0.0,
        0.0,
        0.0,
        0.0,
        2.220446049250313e-16,
        -1.0,
        0.0,
        0.0,
        1.0,
        2.220446049250313e-16,
        0.0,
        0.0,
        0.0,
        0.0,
        1.0
      ],
      "name": "Sketchfab_model"
    },
    {
      "children": [
        2
      ],
      "name": "root"
    },
    {
      "children": [
        3
      ],
      "matrix": [
        1.0,
        0.0,
        0.0,
        0.0,
        0.0,
        2.220446049250313e-16,
        1.0,
        0.0,
        0.0,
        -1.0,
        2.220446049250313e-16,
        0.0,
        0.0,
        0.0,
        0.0,
        1.0
      ],
      "name": "GLTF_SceneRootNode"
    },
    {
      "children": [
        4,
        5,
        6
      ],
      "name": "Cylinder_1"
    },
    {
      "mesh": 0,
      "name": "Object_4"
    },
    {
      "mesh": 1,
      "name": "Object_5"
    },
    {
      "mesh": 2,
      "name": "Object_6"
    }
  ],
  "scene": 0,
  "scenes": [
    {
      "name": "Sketchfab_Scene",
      "nodes": [
        0
      ]
    }
  ]
}
